<svg xmlns="http://www.w3.org/2000/svg" version="1.1" xmlns:xlink="http://www.w3.org/1999/xlink" xmlns:svgjs="http://svgjs.dev/svgjs" width="1981" height="800" preserveAspectRatio="none" viewBox="0 0 1981 800"><g mask="url(&quot;#SvgjsMask2030&quot;)" fill="none"><g mask="url(&quot;#SvgjsMask2031&quot;)"><path d="M580.5 365.5L623.5 322.5L666.5 322.5L709.5 322.5L752.5 322.5M107.5 451.5L150.5 408.5L193.5 408.5L236.5 365.5M279.5 365.5L322.5 322.5L365.5 322.5L408.5 322.5L451.5 322.5M494.5 365.5L537.5 408.5L580.5 408.5M-21.5 408.5L21.5 408.5L64.5 408.5L107.5 451.5L150.5 451.5L193.5 451.5L236.5 408.5L279.5 365.5L322.5 365.5L365.5 365.5L408.5 365.5L451.5 365.5L494.5 365.5L537.5 365.5L580.5 365.5L623.5 365.5" stroke="rgba(0, 0, 0, 1)" stroke-width="7.17"></path><path d="M612.75 365.5 a10.75 10.75 0 1 0 21.5 0 a10.75 10.75 0 1 0 -21.5 0zM741.75 322.5 a10.75 10.75 0 1 0 21.5 0 a10.75 10.75 0 1 0 -21.5 0zM225.75 365.5 a10.75 10.75 0 1 0 21.5 0 a10.75 10.75 0 1 0 -21.5 0zM440.75 322.5 a10.75 10.75 0 1 0 21.5 0 a10.75 10.75 0 1 0 -21.5 0zM569.75 408.5 a10.75 10.75 0 1 0 21.5 0 a10.75 10.75 0 1 0 -21.5 0z" fill="rgba(0, 0, 0, 1)"></path><path d="M107.5 322.5L150.5 365.5L193.5 365.5L236.5 322.5M150.5 322.5L193.5 322.5M64.5 365.5L107.5 365.5M-21.5 365.5L21.5 365.5L64.5 365.5L107.5 322.5L150.5 322.5L193.5 279.5L236.5 279.5" stroke="rgba(99, 99, 99, 1)" stroke-width="7.17"></path><path d="M225.75 279.5 a10.75 10.75 0 1 0 21.5 0 a10.75 10.75 0 1 0 -21.5 0zM225.75 322.5 a10.75 10.75 0 1 0 21.5 0 a10.75 10.75 0 1 0 -21.5 0zM182.75 322.5 a10.75 10.75 0 1 0 21.5 0 a10.75 10.75 0 1 0 -21.5 0zM96.75 365.5 a10.75 10.75 0 1 0 21.5 0 a10.75 10.75 0 1 0 -21.5 0z" fill="rgba(99, 99, 99, 1)"></path><path d="M-21.5 451.5L21.5 451.5L64.5 451.5L107.5 494.5" stroke="rgba(0, 0, 0, 1)" stroke-width="7.17"></path><path d="M96.75 494.5 a10.75 10.75 0 1 0 21.5 0 a10.75 10.75 0 1 0 -21.5 0z" fill="rgba(0, 0, 0, 1)"></path><path d="M494.5 236.5L537.5 279.5L580.5 279.5L623.5 279.5M451.5 236.5L494.5 279.5L537.5 322.5L580.5 322.5M279.5 236.5L322.5 279.5L365.5 279.5L408.5 279.5M-21.5 322.5L21.5 322.5L64.5 322.5L107.5 279.5L150.5 279.5L193.5 236.5L236.5 236.5L279.5 236.5L322.5 236.5L365.5 236.5L408.5 236.5L451.5 236.5L494.5 236.5L537.5 236.5" stroke="rgba(0, 0, 0, 1)" stroke-width="7.17"></path><path d="M526.75 236.5 a10.75 10.75 0 1 0 21.5 0 a10.75 10.75 0 1 0 -21.5 0zM612.75 279.5 a10.75 10.75 0 1 0 21.5 0 a10.75 10.75 0 1 0 -21.5 0zM569.75 322.5 a10.75 10.75 0 1 0 21.5 0 a10.75 10.75 0 1 0 -21.5 0zM397.75 279.5 a10.75 10.75 0 1 0 21.5 0 a10.75 10.75 0 1 0 -21.5 0z" fill="rgba(0, 0, 0, 1)"></path><path d="M408.5 580.5L451.5 580.5M365.5 580.5L408.5 537.5L451.5 494.5L494.5 494.5L537.5 494.5M236.5 537.5L279.5 494.5L322.5 494.5L365.5 494.5M-21.5 494.5L21.5 494.5L64.5 494.5L107.5 537.5L150.5 537.5L193.5 537.5L236.5 537.5L279.5 537.5L322.5 537.5L365.5 580.5L408.5 580.5L451.5 537.5" stroke="rgba(0, 0, 0, 1)" stroke-width="7.17"></path><path d="M440.75 537.5 a10.75 10.75 0 1 0 21.5 0 a10.75 10.75 0 1 0 -21.5 0zM440.75 580.5 a10.75 10.75 0 1 0 21.5 0 a10.75 10.75 0 1 0 -21.5 0zM526.75 494.5 a10.75 10.75 0 1 0 21.5 0 a10.75 10.75 0 1 0 -21.5 0zM354.75 494.5 a10.75 10.75 0 1 0 21.5 0 a10.75 10.75 0 1 0 -21.5 0z" fill="rgba(0, 0, 0, 1)"></path><path d="M838.5 193.5L881.5 236.5L924.5 236.5L967.5 236.5L1010.5 236.5M623.5 193.5L666.5 236.5L709.5 236.5M709.5 193.5L752.5 150.5L795.5 150.5M580.5 193.5L623.5 236.5M752.5 193.5L795.5 236.5M-21.5 279.5L21.5 279.5L64.5 279.5L107.5 236.5L150.5 236.5L193.5 193.5L236.5 193.5L279.5 193.5L322.5 193.5L365.5 193.5L408.5 193.5L451.5 193.5L494.5 193.5L537.5 193.5L580.5 193.5L623.5 193.5L666.5 193.5L709.5 193.5L752.5 193.5L795.5 193.5L838.5 193.5L881.5 193.5L924.5 193.5" stroke="rgba(99, 99, 99, 1)" stroke-width="7.17"></path><path d="M913.75 193.5 a10.75 10.75 0 1 0 21.5 0 a10.75 10.75 0 1 0 -21.5 0zM999.75 236.5 a10.75 10.75 0 1 0 21.5 0 a10.75 10.75 0 1 0 -21.5 0zM698.75 236.5 a10.75 10.75 0 1 0 21.5 0 a10.75 10.75 0 1 0 -21.5 0zM784.75 150.5 a10.75 10.75 0 1 0 21.5 0 a10.75 10.75 0 1 0 -21.5 0zM612.75 236.5 a10.75 10.75 0 1 0 21.5 0 a10.75 10.75 0 1 0 -21.5 0zM784.75 236.5 a10.75 10.75 0 1 0 21.5 0 a10.75 10.75 0 1 0 -21.5 0z" fill="rgba(99, 99, 99, 1)"></path><path d="M365.5 623.5L408.5 623.5L451.5 623.5L494.5 623.5L537.5 623.5L580.5 623.5L623.5 623.5M494.5 666.5L537.5 709.5L580.5 709.5L623.5 709.5M107.5 580.5L150.5 623.5L193.5 666.5L236.5 666.5M236.5 580.5L279.5 623.5L322.5 623.5M-21.5 537.5L21.5 537.5L64.5 537.5L107.5 580.5L150.5 580.5L193.5 580.5L236.5 580.5L279.5 580.5L322.5 580.5L365.5 623.5L408.5 666.5L451.5 666.5L494.5 666.5L537.5 666.5L580.5 666.5L623.5 666.5L666.5 666.5L709.5 623.5L752.5 623.5" stroke="rgba(99, 99, 99, 1)" stroke-width="7.17"></path><path d="M741.75 623.5 a10.75 10.75 0 1 0 21.5 0 a10.75 10.75 0 1 0 -21.5 0zM612.75 623.5 a10.75 10.75 0 1 0 21.5 0 a10.75 10.75 0 1 0 -21.5 0zM612.75 709.5 a10.75 10.75 0 1 0 21.5 0 a10.75 10.75 0 1 0 -21.5 0zM225.75 666.5 a10.75 10.75 0 1 0 21.5 0 a10.75 10.75 0 1 0 -21.5 0zM311.75 623.5 a10.75 10.75 0 1 0 21.5 0 a10.75 10.75 0 1 0 -21.5 0z" fill="rgba(99, 99, 99, 1)"></path><path d="M-21.5 236.5L21.5 236.5L64.5 236.5L107.5 193.5L150.5 193.5L193.5 150.5L236.5 107.5" stroke="rgba(0, 0, 0, 1)" stroke-width="7.17"></path><path d="M225.75 107.5 a10.75 10.75 0 1 0 21.5 0 a10.75 10.75 0 1 0 -21.5 0z" fill="rgba(0, 0, 0, 1)"></path></g></g><defs><mask id="SvgjsMask2030"><rect width="1981" height="800" fill="#ffffff"></rect></mask><mask id="SvgjsMask2031"><rect width="1981" height="800" fill="white"></rect><path d="M618.12 365.5 a5.38 5.38 0 1 0 10.76 0 a5.38 5.38 0 1 0 -10.76 0zM747.12 322.5 a5.38 5.38 0 1 0 10.76 0 a5.38 5.38 0 1 0 -10.76 0zM231.12 365.5 a5.38 5.38 0 1 0 10.76 0 a5.38 5.38 0 1 0 -10.76 0zM446.12 322.5 a5.38 5.38 0 1 0 10.76 0 a5.38 5.38 0 1 0 -10.76 0zM575.12 408.5 a5.38 5.38 0 1 0 10.76 0 a5.38 5.38 0 1 0 -10.76 0z" fill="black"></path><path d="M231.12 279.5 a5.38 5.38 0 1 0 10.76 0 a5.38 5.38 0 1 0 -10.76 0zM231.12 322.5 a5.38 5.38 0 1 0 10.76 0 a5.38 5.38 0 1 0 -10.76 0zM188.12 322.5 a5.38 5.38 0 1 0 10.76 0 a5.38 5.38 0 1 0 -10.76 0zM102.12 365.5 a5.38 5.38 0 1 0 10.76 0 a5.38 5.38 0 1 0 -10.76 0z" fill="black"></path><path d="M102.12 494.5 a5.38 5.38 0 1 0 10.76 0 a5.38 5.38 0 1 0 -10.76 0z" fill="black"></path><path d="M532.12 236.5 a5.38 5.38 0 1 0 10.76 0 a5.38 5.38 0 1 0 -10.76 0zM618.12 279.5 a5.38 5.38 0 1 0 10.76 0 a5.38 5.38 0 1 0 -10.76 0zM575.12 322.5 a5.38 5.38 0 1 0 10.76 0 a5.38 5.38 0 1 0 -10.76 0zM403.12 279.5 a5.38 5.38 0 1 0 10.76 0 a5.38 5.38 0 1 0 -10.76 0z" fill="black"></path><path d="M446.12 537.5 a5.38 5.38 0 1 0 10.76 0 a5.38 5.38 0 1 0 -10.76 0zM446.12 580.5 a5.38 5.38 0 1 0 10.76 0 a5.38 5.38 0 1 0 -10.76 0zM532.12 494.5 a5.38 5.38 0 1 0 10.76 0 a5.38 5.38 0 1 0 -10.76 0zM360.12 494.5 a5.38 5.38 0 1 0 10.76 0 a5.38 5.38 0 1 0 -10.76 0z" fill="black"></path><path d="M919.12 193.5 a5.38 5.38 0 1 0 10.76 0 a5.38 5.38 0 1 0 -10.76 0zM1005.12 236.5 a5.38 5.38 0 1 0 10.76 0 a5.38 5.38 0 1 0 -10.76 0zM704.12 236.5 a5.38 5.38 0 1 0 10.76 0 a5.38 5.38 0 1 0 -10.76 0zM790.12 150.5 a5.38 5.38 0 1 0 10.76 0 a5.38 5.38 0 1 0 -10.76 0zM618.12 236.5 a5.38 5.38 0 1 0 10.76 0 a5.38 5.38 0 1 0 -10.76 0zM790.12 236.5 a5.38 5.38 0 1 0 10.76 0 a5.38 5.38 0 1 0 -10.76 0z" fill="black"></path><path d="M747.12 623.5 a5.38 5.38 0 1 0 10.76 0 a5.38 5.38 0 1 0 -10.76 0zM618.12 623.5 a5.38 5.38 0 1 0 10.76 0 a5.38 5.38 0 1 0 -10.76 0zM618.12 709.5 a5.38 5.38 0 1 0 10.76 0 a5.38 5.38 0 1 0 -10.76 0zM231.12 666.5 a5.38 5.38 0 1 0 10.76 0 a5.38 5.38 0 1 0 -10.76 0zM317.12 623.5 a5.38 5.38 0 1 0 10.76 0 a5.38 5.38 0 1 0 -10.76 0z" fill="black"></path><path d="M231.12 107.5 a5.38 5.38 0 1 0 10.76 0 a5.38 5.38 0 1 0 -10.76 0z" fill="black"></path></mask></defs></svg>