<svg xmlns="http://www.w3.org/2000/svg" version="1.1" xmlns:xlink="http://www.w3.org/1999/xlink" xmlns:svgjs="http://svgjs.dev/svgjs" width="1981" height="687" preserveAspectRatio="none" viewBox="0 0 1981 687"><g mask="url(&quot;#SvgjsMask1386&quot;)" fill="none"><g mask="url(&quot;#SvgjsMask1387&quot;)"><path d="M635.5 389.5L676.5 348.5L717.5 348.5L758.5 348.5L799.5 348.5M676.5 389.5L717.5 430.5L758.5 430.5L799.5 430.5L840.5 430.5M553.5 389.5L594.5 348.5L635.5 348.5L676.5 307.5M307.5 389.5L348.5 348.5L389.5 348.5L430.5 348.5L471.5 348.5M225.5 348.5L266.5 389.5M-20.5 348.5L20.5 348.5L61.5 348.5L102.5 348.5L143.5 348.5L184.5 348.5L225.5 348.5L266.5 348.5L307.5 389.5L348.5 389.5L389.5 389.5L430.5 389.5L471.5 389.5L512.5 389.5L553.5 389.5L594.5 389.5L635.5 389.5L676.5 389.5L717.5 389.5L758.5 389.5" stroke="rgba(0, 0, 0, 1)" stroke-width="6.83"></path><path d="M748.25 389.5 a10.25 10.25 0 1 0 20.5 0 a10.25 10.25 0 1 0 -20.5 0zM789.25 348.5 a10.25 10.25 0 1 0 20.5 0 a10.25 10.25 0 1 0 -20.5 0zM830.25 430.5 a10.25 10.25 0 1 0 20.5 0 a10.25 10.25 0 1 0 -20.5 0zM666.25 307.5 a10.25 10.25 0 1 0 20.5 0 a10.25 10.25 0 1 0 -20.5 0zM461.25 348.5 a10.25 10.25 0 1 0 20.5 0 a10.25 10.25 0 1 0 -20.5 0zM256.25 389.5 a10.25 10.25 0 1 0 20.5 0 a10.25 10.25 0 1 0 -20.5 0z" fill="rgba(0, 0, 0, 1)"></path><path d="M-20.5 307.5L20.5 307.5L61.5 307.5L102.5 307.5L143.5 307.5L184.5 307.5" stroke="rgba(0, 0, 0, 1)" stroke-width="6.83"></path><path d="M174.25 307.5 a10.25 10.25 0 1 0 20.5 0 a10.25 10.25 0 1 0 -20.5 0z" fill="rgba(0, 0, 0, 1)"></path><path d="M143.5 389.5L184.5 430.5M184.5 389.5L225.5 389.5M-20.5 389.5L20.5 389.5L61.5 389.5L102.5 389.5L143.5 389.5L184.5 389.5L225.5 430.5L266.5 430.5L307.5 430.5L348.5 430.5L389.5 430.5L430.5 430.5L471.5 430.5L512.5 430.5L553.5 430.5L594.5 430.5L635.5 430.5" stroke="rgba(99, 99, 99, 1)" stroke-width="6.83"></path><path d="M625.25 430.5 a10.25 10.25 0 1 0 20.5 0 a10.25 10.25 0 1 0 -20.5 0zM174.25 430.5 a10.25 10.25 0 1 0 20.5 0 a10.25 10.25 0 1 0 -20.5 0zM215.25 389.5 a10.25 10.25 0 1 0 20.5 0 a10.25 10.25 0 1 0 -20.5 0z" fill="rgba(99, 99, 99, 1)"></path><path d="M512.5 266.5L553.5 225.5M225.5 225.5L266.5 266.5L307.5 266.5L348.5 307.5M143.5 266.5L184.5 225.5M102.5 266.5L143.5 225.5M-20.5 266.5L20.5 266.5L61.5 266.5L102.5 266.5L143.5 266.5L184.5 266.5L225.5 225.5L266.5 225.5L307.5 225.5L348.5 266.5L389.5 266.5L430.5 266.5L471.5 266.5L512.5 266.5L553.5 266.5L594.5 266.5" stroke="rgba(0, 0, 0, 1)" stroke-width="6.83"></path><path d="M584.25 266.5 a10.25 10.25 0 1 0 20.5 0 a10.25 10.25 0 1 0 -20.5 0zM543.25 225.5 a10.25 10.25 0 1 0 20.5 0 a10.25 10.25 0 1 0 -20.5 0zM338.25 307.5 a10.25 10.25 0 1 0 20.5 0 a10.25 10.25 0 1 0 -20.5 0zM174.25 225.5 a10.25 10.25 0 1 0 20.5 0 a10.25 10.25 0 1 0 -20.5 0zM133.25 225.5 a10.25 10.25 0 1 0 20.5 0 a10.25 10.25 0 1 0 -20.5 0z" fill="rgba(0, 0, 0, 1)"></path><path d="M-20.5 430.5L20.5 430.5L61.5 430.5L102.5 430.5" stroke="rgba(0, 0, 0, 1)" stroke-width="6.83"></path><path d="M92.25 430.5 a10.25 10.25 0 1 0 20.5 0 a10.25 10.25 0 1 0 -20.5 0z" fill="rgba(0, 0, 0, 1)"></path><path d="M676.5 184.5L717.5 143.5L758.5 143.5L799.5 143.5L840.5 143.5L881.5 143.5L922.5 143.5M389.5 184.5L430.5 225.5L471.5 225.5L512.5 225.5M1004.5 184.5L1045.5 143.5L1086.5 143.5M1045.5 184.5L1086.5 225.5M635.5 184.5L676.5 225.5L717.5 225.5L758.5 225.5L799.5 225.5L840.5 225.5M881.5 184.5L922.5 225.5L963.5 225.5L1004.5 266.5L1045.5 266.5M430.5 184.5L471.5 143.5M-20.5 225.5L20.5 225.5L61.5 225.5L102.5 184.5L143.5 184.5L184.5 184.5L225.5 184.5L266.5 184.5L307.5 184.5L348.5 184.5L389.5 184.5L430.5 184.5L471.5 184.5L512.5 184.5L553.5 184.5L594.5 184.5L635.5 184.5L676.5 184.5L717.5 184.5L758.5 184.5L799.5 184.5L840.5 184.5L881.5 184.5L922.5 184.5L963.5 184.5L1004.5 184.5L1045.5 184.5L1086.5 184.5" stroke="rgba(99, 99, 99, 1)" stroke-width="6.83"></path><path d="M1076.25 184.5 a10.25 10.25 0 1 0 20.5 0 a10.25 10.25 0 1 0 -20.5 0zM912.25 143.5 a10.25 10.25 0 1 0 20.5 0 a10.25 10.25 0 1 0 -20.5 0zM502.25 225.5 a10.25 10.25 0 1 0 20.5 0 a10.25 10.25 0 1 0 -20.5 0zM1076.25 143.5 a10.25 10.25 0 1 0 20.5 0 a10.25 10.25 0 1 0 -20.5 0zM1076.25 225.5 a10.25 10.25 0 1 0 20.5 0 a10.25 10.25 0 1 0 -20.5 0zM830.25 225.5 a10.25 10.25 0 1 0 20.5 0 a10.25 10.25 0 1 0 -20.5 0zM1035.25 266.5 a10.25 10.25 0 1 0 20.5 0 a10.25 10.25 0 1 0 -20.5 0zM461.25 143.5 a10.25 10.25 0 1 0 20.5 0 a10.25 10.25 0 1 0 -20.5 0z" fill="rgba(99, 99, 99, 1)"></path><path d="M758.5 471.5L799.5 512.5L840.5 512.5L881.5 512.5L922.5 512.5M553.5 471.5L594.5 512.5L635.5 512.5L676.5 512.5L717.5 512.5L758.5 512.5L799.5 553.5M512.5 471.5L553.5 512.5L594.5 553.5M471.5 471.5L512.5 512.5M102.5 471.5L143.5 512.5L184.5 512.5L225.5 512.5L266.5 512.5L307.5 512.5L348.5 512.5L389.5 512.5M-20.5 471.5L20.5 471.5L61.5 471.5L102.5 471.5L143.5 471.5L184.5 471.5L225.5 471.5L266.5 471.5L307.5 471.5L348.5 471.5L389.5 471.5L430.5 471.5L471.5 471.5L512.5 471.5L553.5 471.5L594.5 471.5L635.5 471.5L676.5 471.5L717.5 471.5L758.5 471.5L799.5 471.5L840.5 471.5" stroke="rgba(99, 99, 99, 1)" stroke-width="6.83"></path><path d="M830.25 471.5 a10.25 10.25 0 1 0 20.5 0 a10.25 10.25 0 1 0 -20.5 0zM912.25 512.5 a10.25 10.25 0 1 0 20.5 0 a10.25 10.25 0 1 0 -20.5 0zM789.25 553.5 a10.25 10.25 0 1 0 20.5 0 a10.25 10.25 0 1 0 -20.5 0zM584.25 553.5 a10.25 10.25 0 1 0 20.5 0 a10.25 10.25 0 1 0 -20.5 0zM502.25 512.5 a10.25 10.25 0 1 0 20.5 0 a10.25 10.25 0 1 0 -20.5 0zM379.25 512.5 a10.25 10.25 0 1 0 20.5 0 a10.25 10.25 0 1 0 -20.5 0z" fill="rgba(99, 99, 99, 1)"></path><path d="M225.5 143.5L266.5 102.5L307.5 102.5M102.5 143.5L143.5 102.5L184.5 102.5M348.5 143.5L389.5 102.5L430.5 102.5L471.5 102.5M-20.5 184.5L20.5 184.5L61.5 184.5L102.5 143.5L143.5 143.5L184.5 143.5L225.5 143.5L266.5 143.5L307.5 143.5L348.5 143.5L389.5 143.5" stroke="rgba(0, 0, 0, 1)" stroke-width="6.83"></path><path d="M379.25 143.5 a10.25 10.25 0 1 0 20.5 0 a10.25 10.25 0 1 0 -20.5 0zM297.25 102.5 a10.25 10.25 0 1 0 20.5 0 a10.25 10.25 0 1 0 -20.5 0zM174.25 102.5 a10.25 10.25 0 1 0 20.5 0 a10.25 10.25 0 1 0 -20.5 0zM461.25 102.5 a10.25 10.25 0 1 0 20.5 0 a10.25 10.25 0 1 0 -20.5 0z" fill="rgba(0, 0, 0, 1)"></path></g></g><defs><mask id="SvgjsMask1386"><rect width="1981" height="687" fill="#ffffff"></rect></mask><mask id="SvgjsMask1387"><rect width="1981" height="687" fill="white"></rect><path d="M753.37 389.5 a5.13 5.13 0 1 0 10.26 0 a5.13 5.13 0 1 0 -10.26 0zM794.37 348.5 a5.13 5.13 0 1 0 10.26 0 a5.13 5.13 0 1 0 -10.26 0zM835.37 430.5 a5.13 5.13 0 1 0 10.26 0 a5.13 5.13 0 1 0 -10.26 0zM671.37 307.5 a5.13 5.13 0 1 0 10.26 0 a5.13 5.13 0 1 0 -10.26 0zM466.37 348.5 a5.13 5.13 0 1 0 10.26 0 a5.13 5.13 0 1 0 -10.26 0zM261.37 389.5 a5.13 5.13 0 1 0 10.26 0 a5.13 5.13 0 1 0 -10.26 0z" fill="black"></path><path d="M179.37 307.5 a5.13 5.13 0 1 0 10.26 0 a5.13 5.13 0 1 0 -10.26 0z" fill="black"></path><path d="M630.37 430.5 a5.13 5.13 0 1 0 10.26 0 a5.13 5.13 0 1 0 -10.26 0zM179.37 430.5 a5.13 5.13 0 1 0 10.26 0 a5.13 5.13 0 1 0 -10.26 0zM220.37 389.5 a5.13 5.13 0 1 0 10.26 0 a5.13 5.13 0 1 0 -10.26 0z" fill="black"></path><path d="M589.37 266.5 a5.13 5.13 0 1 0 10.26 0 a5.13 5.13 0 1 0 -10.26 0zM548.37 225.5 a5.13 5.13 0 1 0 10.26 0 a5.13 5.13 0 1 0 -10.26 0zM343.37 307.5 a5.13 5.13 0 1 0 10.26 0 a5.13 5.13 0 1 0 -10.26 0zM179.37 225.5 a5.13 5.13 0 1 0 10.26 0 a5.13 5.13 0 1 0 -10.26 0zM138.37 225.5 a5.13 5.13 0 1 0 10.26 0 a5.13 5.13 0 1 0 -10.26 0z" fill="black"></path><path d="M97.37 430.5 a5.13 5.13 0 1 0 10.26 0 a5.13 5.13 0 1 0 -10.26 0z" fill="black"></path><path d="M1081.37 184.5 a5.13 5.13 0 1 0 10.26 0 a5.13 5.13 0 1 0 -10.26 0zM917.37 143.5 a5.13 5.13 0 1 0 10.26 0 a5.13 5.13 0 1 0 -10.26 0zM507.37 225.5 a5.13 5.13 0 1 0 10.26 0 a5.13 5.13 0 1 0 -10.26 0zM1081.37 143.5 a5.13 5.13 0 1 0 10.26 0 a5.13 5.13 0 1 0 -10.26 0zM1081.37 225.5 a5.13 5.13 0 1 0 10.26 0 a5.13 5.13 0 1 0 -10.26 0zM835.37 225.5 a5.13 5.13 0 1 0 10.26 0 a5.13 5.13 0 1 0 -10.26 0zM1040.37 266.5 a5.13 5.13 0 1 0 10.26 0 a5.13 5.13 0 1 0 -10.26 0zM466.37 143.5 a5.13 5.13 0 1 0 10.26 0 a5.13 5.13 0 1 0 -10.26 0z" fill="black"></path><path d="M835.37 471.5 a5.13 5.13 0 1 0 10.26 0 a5.13 5.13 0 1 0 -10.26 0zM917.37 512.5 a5.13 5.13 0 1 0 10.26 0 a5.13 5.13 0 1 0 -10.26 0zM794.37 553.5 a5.13 5.13 0 1 0 10.26 0 a5.13 5.13 0 1 0 -10.26 0zM589.37 553.5 a5.13 5.13 0 1 0 10.26 0 a5.13 5.13 0 1 0 -10.26 0zM507.37 512.5 a5.13 5.13 0 1 0 10.26 0 a5.13 5.13 0 1 0 -10.26 0zM384.37 512.5 a5.13 5.13 0 1 0 10.26 0 a5.13 5.13 0 1 0 -10.26 0z" fill="black"></path><path d="M384.37 143.5 a5.13 5.13 0 1 0 10.26 0 a5.13 5.13 0 1 0 -10.26 0zM302.37 102.5 a5.13 5.13 0 1 0 10.26 0 a5.13 5.13 0 1 0 -10.26 0zM179.37 102.5 a5.13 5.13 0 1 0 10.26 0 a5.13 5.13 0 1 0 -10.26 0zM466.37 102.5 a5.13 5.13 0 1 0 10.26 0 a5.13 5.13 0 1 0 -10.26 0z" fill="black"></path></mask></defs></svg>