<svg xmlns="http://www.w3.org/2000/svg" version="1.1" xmlns:xlink="http://www.w3.org/1999/xlink" xmlns:svgjs="http://svgjs.dev/svgjs" width="1920" height="1080" preserveAspectRatio="none" viewBox="0 0 1920 1080"><g mask="url(&quot;#SvgjsMask1450&quot;)" fill="none"><rect width="1920" height="1080" x="0" y="0" fill="rgba(184, 197, 214, 1)"></rect><use xlink:href="#SvgjsG1455" transform="translate(0, 0)" fill="rgba(49, 49, 49, 1)"></use><use xlink:href="#SvgjsG1455" transform="translate(1161, 0)" fill="rgba(49, 49, 49, 1)"></use></g><defs><mask id="SvgjsMask1450"><rect width="1920" height="1080" fill="#ffffff"></rect></mask><g id="SvgjsG1451"><path d="M7.713 15.485C3.459 15.485 0 12.025 0 7.768 0 3.513 3.459 0.051 7.713 0.051S15.432 3.513 15.432 7.768c0 4.257-3.465 7.716-7.719 7.717z m0-1.91c3.201 0 5.81-2.604 5.81-5.809 0-3.199-2.61-5.807-5.81-5.807-3.202 0-5.804 2.609-5.804 5.807-0.001 3.206 2.602 5.809 5.804 5.809z"></path><path d="M7.753 8.787a0.574 0.574 0 0 1-0.554-0.042 0.578 0.578 0 0 1-0.259-0.399L6.931 3.862a0.58 0.58 0 0 1 1.162 0v3.478l2.975-1.4a0.578 0.578 0 0 1 0.773 0.275c0.138 0.292 0.011 0.637-0.276 0.774l-3.81 1.798z"></path></g><g id="SvgjsG1452"><path d="M15.233 9.431c0.295 0 0.569-0.239 0.61-0.532 0 0 0.056-0.411 0.056-0.899s-0.056-0.899-0.056-0.899c-0.041-0.292-0.315-0.531-0.61-0.53h-1.524c-0.295 0-0.602-0.188-0.681-0.418s-0.188-0.967 0.021-1.176l1.078-1.077c0.209-0.209 0.225-0.565 0.036-0.792l-1.268-1.268c-0.227-0.189-0.583-0.173-0.792 0.036l-1.078 1.077c-0.208 0.209-0.556 0.293-0.772 0.187s-0.822-0.552-0.821-0.847V0.767c0-0.295-0.239-0.569-0.531-0.61 0 0-0.411-0.057-0.9-0.056s-0.899 0.057-0.899 0.056c-0.293 0.04-0.532 0.315-0.532 0.61v1.524c0 0.295-0.188 0.601-0.418 0.681s-0.967 0.188-1.176-0.021l-1.078-1.078C3.689 1.665 3.333 1.649 3.107 1.837l-1.268 1.268c-0.189 0.227-0.173 0.583 0.036 0.792l1.077 1.078c0.209 0.209 0.293 0.556 0.187 0.772s-0.552 0.822-0.847 0.822H0.767c-0.295 0-0.569 0.239-0.61 0.531 0 0-0.057 0.411-0.056 0.899s0.057 0.899 0.056 0.9c0.04 0.293 0.315 0.532 0.61 0.532h1.525c0.295 0 0.601 0.188 0.681 0.417 0.079 0.23 0.188 0.967-0.02 1.176l-1.078 1.077C1.667 12.311 1.651 12.667 1.84 12.893l1.267 1.268c0.227 0.189 0.583 0.173 0.792-0.036l1.077-1.077c0.209-0.208 0.556-0.292 0.772-0.187s0.821 0.553 0.822 0.848v1.524c0 0.295 0.239 0.569 0.532 0.61 0 0 0.411 0.057 0.899 0.057s0.899-0.056 0.899-0.057c0.293-0.04 0.531-0.315 0.532-0.609v-1.524c0-0.295 0.188-0.602 0.418-0.681 0.23-0.079 0.967-0.188 1.176 0.021l1.077 1.077c0.209 0.209 0.565 0.225 0.792 0.036l1.268-1.267c0.189-0.227 0.173-0.583-0.036-0.792l-1.078-1.077c-0.209-0.209-0.293-0.557-0.186-0.773 0.106-0.216 0.552-0.822 0.847-0.822h1.525zM8 10.892c-1.597 0-2.891-1.294-2.891-2.892 0-1.596 1.295-2.891 2.891-2.891S10.892 6.404 10.892 8 9.597 10.892 8 10.892z"></path></g><g id="SvgjsG1453"><path d="M6.498 9.304L12.139 3.663l1.565 1.566-5.641 5.641z"></path><path d="M6.8 0.457h2.541v8.028H6.8z"></path><path d="M8.072 10.876L2.429 5.238l1.563-1.566L9.636 9.313zM1.2 13.277h13.733v2.266H1.2z"></path><path d="M0.733 9.143h2.267v6.4h-2.267z m12.267 0h2.267v6.4h-2.267z"></path></g><g id="SvgjsG1454"><path d="M1.396 3.591v6.948h-1.04A0.356 0.356 0 0 1 0 10.182V1.217C0 0.914 0.227 0.667 0.537 0.667h4.593C5.44 0.667 5.667 0.913 5.667 1.216v0.527h7.102c0.198 0 0.357 0.159 0.357 0.355v2.016h-6.064V3.587c0-0.303-0.226-0.549-0.537-0.55H1.933c-0.311 0-0.537 0.25-0.537 0.555z" fill-rule="evenodd"></path><path d="M15.918 14.746c0 0.197-0.159 0.355-0.357 0.355H3.149c-0.198 0-0.357-0.158-0.356-0.355V5.78c0-0.303 0.227-0.55 0.536-0.55h4.593c0.311 0 0.538 0.246 0.538 0.549v0.527h7.101c0.198 0 0.357 0.159 0.357 0.355v8.085z" fill-rule="evenodd"></path></g><g id="SvgjsG1455"><use xlink:href="#SvgjsG1451" transform="translate(0, 0) scale(2.7)" fill="rgba(49, 49, 49, 1)"></use><use xlink:href="#SvgjsG1452" transform="translate(0, 116.10000000000001) scale(2.7)" fill="rgba(49, 49, 49, 1)"></use><use xlink:href="#SvgjsG1453" transform="translate(0, 232.20000000000002) scale(2.7)" fill="rgba(49, 49, 49, 1)"></use><use xlink:href="#SvgjsG1454" transform="translate(0, 348.3) scale(2.7)" fill="rgba(49, 49, 49, 1)"></use><use xlink:href="#SvgjsG1451" transform="translate(0, 464.40000000000003) scale(2.7)" fill="rgba(49, 49, 49, 1)"></use><use xlink:href="#SvgjsG1452" transform="translate(0, 580.5) scale(2.7)" fill="rgba(49, 49, 49, 1)"></use><use xlink:href="#SvgjsG1453" transform="translate(0, 696.6) scale(2.7)" fill="rgba(49, 49, 49, 1)"></use><use xlink:href="#SvgjsG1454" transform="translate(0, 812.7) scale(2.7)" fill="rgba(49, 49, 49, 1)"></use><use xlink:href="#SvgjsG1451" transform="translate(0, 928.8000000000001) scale(2.7)" fill="rgba(49, 49, 49, 1)"></use><use xlink:href="#SvgjsG1452" transform="translate(0, 1044.9) scale(2.7)" fill="rgba(49, 49, 49, 1)"></use><use xlink:href="#SvgjsG1452" transform="translate(116.10000000000001, 0) scale(2.7)" fill="rgba(49, 49, 49, 1)"></use><use xlink:href="#SvgjsG1453" transform="translate(116.10000000000001, 116.10000000000001) scale(2.7)" fill="rgba(49, 49, 49, 1)"></use><use xlink:href="#SvgjsG1454" transform="translate(116.10000000000001, 232.20000000000002) scale(2.7)" fill="rgba(49, 49, 49, 1)"></use><use xlink:href="#SvgjsG1451" transform="translate(116.10000000000001, 348.3) scale(2.7)" fill="rgba(49, 49, 49, 1)"></use><use xlink:href="#SvgjsG1452" transform="translate(116.10000000000001, 464.40000000000003) scale(2.7)" fill="rgba(49, 49, 49, 1)"></use><use xlink:href="#SvgjsG1453" transform="translate(116.10000000000001, 580.5) scale(2.7)" fill="rgba(49, 49, 49, 1)"></use><use xlink:href="#SvgjsG1454" transform="translate(116.10000000000001, 696.6) scale(2.7)" fill="rgba(49, 49, 49, 1)"></use><use xlink:href="#SvgjsG1451" transform="translate(116.10000000000001, 812.7) scale(2.7)" fill="rgba(49, 49, 49, 1)"></use><use xlink:href="#SvgjsG1452" transform="translate(116.10000000000001, 928.8000000000001) scale(2.7)" fill="rgba(49, 49, 49, 1)"></use><use xlink:href="#SvgjsG1453" transform="translate(116.10000000000001, 1044.9) scale(2.7)" fill="rgba(49, 49, 49, 1)"></use><use xlink:href="#SvgjsG1453" transform="translate(232.20000000000002, 0) scale(2.7)" fill="rgba(49, 49, 49, 1)"></use><use xlink:href="#SvgjsG1454" transform="translate(232.20000000000002, 116.10000000000001) scale(2.7)" fill="rgba(49, 49, 49, 1)"></use><use xlink:href="#SvgjsG1451" transform="translate(232.20000000000002, 232.20000000000002) scale(2.7)" fill="rgba(49, 49, 49, 1)"></use><use xlink:href="#SvgjsG1452" transform="translate(232.20000000000002, 348.3) scale(2.7)" fill="rgba(49, 49, 49, 1)"></use><use xlink:href="#SvgjsG1453" transform="translate(232.20000000000002, 464.40000000000003) scale(2.7)" fill="rgba(49, 49, 49, 1)"></use><use xlink:href="#SvgjsG1454" transform="translate(232.20000000000002, 580.5) scale(2.7)" fill="rgba(49, 49, 49, 1)"></use><use xlink:href="#SvgjsG1451" transform="translate(232.20000000000002, 696.6) scale(2.7)" fill="rgba(49, 49, 49, 1)"></use><use xlink:href="#SvgjsG1452" transform="translate(232.20000000000002, 812.7) scale(2.7)" fill="rgba(49, 49, 49, 1)"></use><use xlink:href="#SvgjsG1453" transform="translate(232.20000000000002, 928.8000000000001) scale(2.7)" fill="rgba(49, 49, 49, 1)"></use><use xlink:href="#SvgjsG1454" transform="translate(232.20000000000002, 1044.9) scale(2.7)" fill="rgba(49, 49, 49, 1)"></use><use xlink:href="#SvgjsG1454" transform="translate(348.3, 0) scale(2.7)" fill="rgba(49, 49, 49, 1)"></use><use xlink:href="#SvgjsG1451" transform="translate(348.3, 116.10000000000001) scale(2.7)" fill="rgba(49, 49, 49, 1)"></use><use xlink:href="#SvgjsG1452" transform="translate(348.3, 232.20000000000002) scale(2.7)" fill="rgba(49, 49, 49, 1)"></use><use xlink:href="#SvgjsG1453" transform="translate(348.3, 348.3) scale(2.7)" fill="rgba(49, 49, 49, 1)"></use><use xlink:href="#SvgjsG1454" transform="translate(348.3, 464.40000000000003) scale(2.7)" fill="rgba(49, 49, 49, 1)"></use><use xlink:href="#SvgjsG1451" transform="translate(348.3, 580.5) scale(2.7)" fill="rgba(49, 49, 49, 1)"></use><use xlink:href="#SvgjsG1452" transform="translate(348.3, 696.6) scale(2.7)" fill="rgba(49, 49, 49, 1)"></use><use xlink:href="#SvgjsG1453" transform="translate(348.3, 812.7) scale(2.7)" fill="rgba(49, 49, 49, 1)"></use><use xlink:href="#SvgjsG1454" transform="translate(348.3, 928.8000000000001) scale(2.7)" fill="rgba(49, 49, 49, 1)"></use><use xlink:href="#SvgjsG1451" transform="translate(348.3, 1044.9) scale(2.7)" fill="rgba(49, 49, 49, 1)"></use><use xlink:href="#SvgjsG1451" transform="translate(464.40000000000003, 0) scale(2.7)" fill="rgba(49, 49, 49, 1)"></use><use xlink:href="#SvgjsG1452" transform="translate(464.40000000000003, 116.10000000000001) scale(2.7)" fill="rgba(49, 49, 49, 1)"></use><use xlink:href="#SvgjsG1453" transform="translate(464.40000000000003, 232.20000000000002) scale(2.7)" fill="rgba(49, 49, 49, 1)"></use><use xlink:href="#SvgjsG1454" transform="translate(464.40000000000003, 348.3) scale(2.7)" fill="rgba(49, 49, 49, 1)"></use><use xlink:href="#SvgjsG1451" transform="translate(464.40000000000003, 464.40000000000003) scale(2.7)" fill="rgba(49, 49, 49, 1)"></use><use xlink:href="#SvgjsG1452" transform="translate(464.40000000000003, 580.5) scale(2.7)" fill="rgba(49, 49, 49, 1)"></use><use xlink:href="#SvgjsG1453" transform="translate(464.40000000000003, 696.6) scale(2.7)" fill="rgba(49, 49, 49, 1)"></use><use xlink:href="#SvgjsG1454" transform="translate(464.40000000000003, 812.7) scale(2.7)" fill="rgba(49, 49, 49, 1)"></use><use xlink:href="#SvgjsG1451" transform="translate(464.40000000000003, 928.8000000000001) scale(2.7)" fill="rgba(49, 49, 49, 1)"></use><use xlink:href="#SvgjsG1452" transform="translate(464.40000000000003, 1044.9) scale(2.7)" fill="rgba(49, 49, 49, 1)"></use><use xlink:href="#SvgjsG1452" transform="translate(580.5, 0) scale(2.7)" fill="rgba(49, 49, 49, 1)"></use><use xlink:href="#SvgjsG1453" transform="translate(580.5, 116.10000000000001) scale(2.7)" fill="rgba(49, 49, 49, 1)"></use><use xlink:href="#SvgjsG1454" transform="translate(580.5, 232.20000000000002) scale(2.7)" fill="rgba(49, 49, 49, 1)"></use><use xlink:href="#SvgjsG1451" transform="translate(580.5, 348.3) scale(2.7)" fill="rgba(49, 49, 49, 1)"></use><use xlink:href="#SvgjsG1452" transform="translate(580.5, 464.40000000000003) scale(2.7)" fill="rgba(49, 49, 49, 1)"></use><use xlink:href="#SvgjsG1453" transform="translate(580.5, 580.5) scale(2.7)" fill="rgba(49, 49, 49, 1)"></use><use xlink:href="#SvgjsG1454" transform="translate(580.5, 696.6) scale(2.7)" fill="rgba(49, 49, 49, 1)"></use><use xlink:href="#SvgjsG1451" transform="translate(580.5, 812.7) scale(2.7)" fill="rgba(49, 49, 49, 1)"></use><use xlink:href="#SvgjsG1452" transform="translate(580.5, 928.8000000000001) scale(2.7)" fill="rgba(49, 49, 49, 1)"></use><use xlink:href="#SvgjsG1453" transform="translate(580.5, 1044.9) scale(2.7)" fill="rgba(49, 49, 49, 1)"></use><use xlink:href="#SvgjsG1453" transform="translate(696.6, 0) scale(2.7)" fill="rgba(49, 49, 49, 1)"></use><use xlink:href="#SvgjsG1454" transform="translate(696.6, 116.10000000000001) scale(2.7)" fill="rgba(49, 49, 49, 1)"></use><use xlink:href="#SvgjsG1451" transform="translate(696.6, 232.20000000000002) scale(2.7)" fill="rgba(49, 49, 49, 1)"></use><use xlink:href="#SvgjsG1452" transform="translate(696.6, 348.3) scale(2.7)" fill="rgba(49, 49, 49, 1)"></use><use xlink:href="#SvgjsG1453" transform="translate(696.6, 464.40000000000003) scale(2.7)" fill="rgba(49, 49, 49, 1)"></use><use xlink:href="#SvgjsG1454" transform="translate(696.6, 580.5) scale(2.7)" fill="rgba(49, 49, 49, 1)"></use><use xlink:href="#SvgjsG1451" transform="translate(696.6, 696.6) scale(2.7)" fill="rgba(49, 49, 49, 1)"></use><use xlink:href="#SvgjsG1452" transform="translate(696.6, 812.7) scale(2.7)" fill="rgba(49, 49, 49, 1)"></use><use xlink:href="#SvgjsG1453" transform="translate(696.6, 928.8000000000001) scale(2.7)" fill="rgba(49, 49, 49, 1)"></use><use xlink:href="#SvgjsG1454" transform="translate(696.6, 1044.9) scale(2.7)" fill="rgba(49, 49, 49, 1)"></use><use xlink:href="#SvgjsG1454" transform="translate(812.7, 0) scale(2.7)" fill="rgba(49, 49, 49, 1)"></use><use xlink:href="#SvgjsG1451" transform="translate(812.7, 116.10000000000001) scale(2.7)" fill="rgba(49, 49, 49, 1)"></use><use xlink:href="#SvgjsG1452" transform="translate(812.7, 232.20000000000002) scale(2.7)" fill="rgba(49, 49, 49, 1)"></use><use xlink:href="#SvgjsG1453" transform="translate(812.7, 348.3) scale(2.7)" fill="rgba(49, 49, 49, 1)"></use><use xlink:href="#SvgjsG1454" transform="translate(812.7, 464.40000000000003) scale(2.7)" fill="rgba(49, 49, 49, 1)"></use><use xlink:href="#SvgjsG1451" transform="translate(812.7, 580.5) scale(2.7)" fill="rgba(49, 49, 49, 1)"></use><use xlink:href="#SvgjsG1452" transform="translate(812.7, 696.6) scale(2.7)" fill="rgba(49, 49, 49, 1)"></use><use xlink:href="#SvgjsG1453" transform="translate(812.7, 812.7) scale(2.7)" fill="rgba(49, 49, 49, 1)"></use><use xlink:href="#SvgjsG1454" transform="translate(812.7, 928.8000000000001) scale(2.7)" fill="rgba(49, 49, 49, 1)"></use><use xlink:href="#SvgjsG1451" transform="translate(812.7, 1044.9) scale(2.7)" fill="rgba(49, 49, 49, 1)"></use><use xlink:href="#SvgjsG1451" transform="translate(928.8000000000001, 0) scale(2.7)" fill="rgba(49, 49, 49, 1)"></use><use xlink:href="#SvgjsG1452" transform="translate(928.8000000000001, 116.10000000000001) scale(2.7)" fill="rgba(49, 49, 49, 1)"></use><use xlink:href="#SvgjsG1453" transform="translate(928.8000000000001, 232.20000000000002) scale(2.7)" fill="rgba(49, 49, 49, 1)"></use><use xlink:href="#SvgjsG1454" transform="translate(928.8000000000001, 348.3) scale(2.7)" fill="rgba(49, 49, 49, 1)"></use><use xlink:href="#SvgjsG1451" transform="translate(928.8000000000001, 464.40000000000003) scale(2.7)" fill="rgba(49, 49, 49, 1)"></use><use xlink:href="#SvgjsG1452" transform="translate(928.8000000000001, 580.5) scale(2.7)" fill="rgba(49, 49, 49, 1)"></use><use xlink:href="#SvgjsG1453" transform="translate(928.8000000000001, 696.6) scale(2.7)" fill="rgba(49, 49, 49, 1)"></use><use xlink:href="#SvgjsG1454" transform="translate(928.8000000000001, 812.7) scale(2.7)" fill="rgba(49, 49, 49, 1)"></use><use xlink:href="#SvgjsG1451" transform="translate(928.8000000000001, 928.8000000000001) scale(2.7)" fill="rgba(49, 49, 49, 1)"></use><use xlink:href="#SvgjsG1452" transform="translate(928.8000000000001, 1044.9) scale(2.7)" fill="rgba(49, 49, 49, 1)"></use><use xlink:href="#SvgjsG1452" transform="translate(1044.9, 0) scale(2.7)" fill="rgba(49, 49, 49, 1)"></use><use xlink:href="#SvgjsG1453" transform="translate(1044.9, 116.10000000000001) scale(2.7)" fill="rgba(49, 49, 49, 1)"></use><use xlink:href="#SvgjsG1454" transform="translate(1044.9, 232.20000000000002) scale(2.7)" fill="rgba(49, 49, 49, 1)"></use><use xlink:href="#SvgjsG1451" transform="translate(1044.9, 348.3) scale(2.7)" fill="rgba(49, 49, 49, 1)"></use><use xlink:href="#SvgjsG1452" transform="translate(1044.9, 464.40000000000003) scale(2.7)" fill="rgba(49, 49, 49, 1)"></use><use xlink:href="#SvgjsG1453" transform="translate(1044.9, 580.5) scale(2.7)" fill="rgba(49, 49, 49, 1)"></use><use xlink:href="#SvgjsG1454" transform="translate(1044.9, 696.6) scale(2.7)" fill="rgba(49, 49, 49, 1)"></use><use xlink:href="#SvgjsG1451" transform="translate(1044.9, 812.7) scale(2.7)" fill="rgba(49, 49, 49, 1)"></use><use xlink:href="#SvgjsG1452" transform="translate(1044.9, 928.8000000000001) scale(2.7)" fill="rgba(49, 49, 49, 1)"></use><use xlink:href="#SvgjsG1453" transform="translate(1044.9, 1044.9) scale(2.7)" fill="rgba(49, 49, 49, 1)"></use></g></defs></svg>