<svg xmlns="http://www.w3.org/2000/svg" version="1.1" xmlns:xlink="http://www.w3.org/1999/xlink" xmlns:svgjs="http://svgjs.dev/svgjs" width="1920" height="400" preserveAspectRatio="none" viewBox="0 0 1920 400"><g mask="url(&quot;#SvgjsMask1413&quot;)" fill="none"><g transform="translate(-115.2, -4)" stroke-linecap="round"><path d="M240 127.61 L240 272.38" stroke-width="33.75" stroke="rgba(113, 113, 113, 1)"></path><path d="M285 132.92 L285 267.08" stroke-width="33.75" stroke="rgba(113, 113, 113, 1)"></path><path d="M330 114.46 L330 285.54" stroke-width="33.75" stroke="rgba(113, 113, 113, 1)"></path><path d="M375 70.19 L375 329.81" stroke-width="33.75" stroke="rgba(0, 0, 0, 1)"></path><path d="M420 106.08 L420 293.93" stroke-width="33.75" stroke="rgba(113, 113, 113, 1)"></path><path d="M465 136.81 L465 263.19" stroke-width="33.75" stroke="rgba(113, 113, 113, 1)"></path><path d="M510 103.21 L510 296.79" stroke-width="33.75" stroke="rgba(113, 113, 113, 1)"></path><path d="M555 171.2 L555 228.8" stroke-width="33.75" stroke="rgba(113, 113, 113, 1)"></path><path d="M600 82.18 L600 317.82" stroke-width="33.75" stroke="rgba(0, 0, 0, 1)"></path><path d="M645 98.92 L645 301.07" stroke-width="33.75" stroke="rgba(113, 113, 113, 1)"></path><path d="M690 74.17 L690 325.82" stroke-width="33.75" stroke="rgba(0, 0, 0, 1)"></path><path d="M735 137.25 L735 262.75" stroke-width="33.75" stroke="rgba(0, 0, 0, 1)"></path><path d="M780 95.83 L780 304.17" stroke-width="33.75" stroke="rgba(0, 0, 0, 1)"></path><path d="M825 77.98 L825 322.01" stroke-width="33.75" stroke="rgba(113, 113, 113, 1)"></path><path d="M870 160.78 L870 239.22" stroke-width="33.75" stroke="rgba(113, 113, 113, 1)"></path><path d="M915 166.03 L915 233.97" stroke-width="33.75" stroke="rgba(113, 113, 113, 1)"></path><path d="M960 92.55 L960 307.45" stroke-width="33.75" stroke="rgba(113, 113, 113, 1)"></path><path d="M1005 166.34 L1005 233.66" stroke-width="33.75" stroke="rgba(0, 0, 0, 1)"></path><path d="M1050 128.86 L1050 271.14" stroke-width="33.75" stroke="rgba(0, 0, 0, 1)"></path><path d="M1095 155.53 L1095 244.47" stroke-width="33.75" stroke="rgba(113, 113, 113, 1)"></path><path d="M1140 181.4 L1140 218.6" stroke-width="33.75" stroke="rgba(0, 0, 0, 1)"></path><path d="M1185 154.06 L1185 245.94" stroke-width="33.75" stroke="rgba(0, 0, 0, 1)"></path><path d="M1230 161.94 L1230 238.06" stroke-width="33.75" stroke="rgba(0, 0, 0, 1)"></path><path d="M1275 95.86 L1275 304.14" stroke-width="33.75" stroke="rgba(113, 113, 113, 1)"></path><path d="M1320 157.8 L1320 242.2" stroke-width="33.75" stroke="rgba(113, 113, 113, 1)"></path><path d="M1365 156.83 L1365 243.17" stroke-width="33.75" stroke="rgba(0, 0, 0, 1)"></path><path d="M1410 118.93 L1410 281.07" stroke-width="33.75" stroke="rgba(113, 113, 113, 1)"></path><path d="M1455 140.53 L1455 259.48" stroke-width="33.75" stroke="rgba(113, 113, 113, 1)"></path><path d="M1500 138.72 L1500 261.27" stroke-width="33.75" stroke="rgba(0, 0, 0, 1)"></path><path d="M1545 139.44 L1545 260.56" stroke-width="33.75" stroke="rgba(113, 113, 113, 1)"></path><path d="M1590 124.9 L1590 275.1" stroke-width="33.75" stroke="rgba(0, 0, 0, 1)"></path><path d="M1635 153.05 L1635 246.95" stroke-width="33.75" stroke="rgba(0, 0, 0, 1)"></path><path d="M1680 84.94 L1680 315.06" stroke-width="33.75" stroke="rgba(0, 0, 0, 1)"></path></g></g><defs><mask id="SvgjsMask1413"><rect width="1920" height="400" fill="#ffffff"></rect></mask></defs></svg>